{
  "source": "C:\\Users\\Peter\\Desktop\\stuff\\MIUN\\quantitative_research\\video_compression\\videos\\BVI-HD\\BVI-HD_CDVL_videos\\ORIG\\DiverFishAndRock_1920x1080_30fps.mp4",
  "output": "C:\\Users\\Peter\\Desktop\\stuff\\MIUN\\quantitative_research\\video_compression\\compressed_videos\\BVI-HD\\vp9\\8\\DiverFishAndRock_1920x1080_30fps_vp9.webm",
  "codec": "vp9",
  "ok": "Input #0, mov,mp4,m4a,3gp,3g2,mj2, from 'C:\\Users\\Peter\\Desktop\\stuff\\MIUN\\quantitative_research\\video_compression\\videos\\BVI-HD\\BVI-HD_CDVL_videos\\ORIG\\DiverFishAndRock_1920x1080_30fps.mp4':\n  Metadata:\n    major_brand     : isom\n    minor_version   : 512\n    compatible_brands: isomiso2avc1mp41\n    encoder         : Lavf54.28.101\n  Duration: 00:00:05.00, start: 0.000000, bitrate: 228854 kb/s\n  Stream #0:0[0x1](und): Video: h264 (High 4:4:4 Predictive) (avc1 / 0x31637661), yuv420p(progressive), 1920x1080, 228851 kb/s, 30 fps, 30 tbr, 30 tbn (default)\n    Metadata:\n      handler_name    : VideoHandler\n      vendor_id       : [0][0][0][0]\n[out#0/webm @ 00000289442f0bc0] Codec AVOption b:a (set bitrate (in bits/s)) has not been used for any stream. The most likely reason is either wrong type (e.g. a video option with no video streams) or that it is a private option of some decoder which was not actually used for any stream.\nStream mapping:\n  Stream #0:0 -> #0:0 (h264 (native) -> vp9 (libvpx-vp9))\nPress [q] to stop, [?] for help\n[libvpx-vp9 @ 00000289442ec2c0] v1.15.2-100-g40561f514\nOutput #0, webm, to 'C:\\Users\\Peter\\Desktop\\stuff\\MIUN\\quantitative_research\\video_compression\\compressed_videos\\BVI-HD\\vp9\\8\\DiverFishAndRock_1920x1080_30fps_vp9.webm':\n  Metadata:\n    major_brand     : isom\n    minor_version   : 512\n    compatible_brands: isomiso2avc1mp41\n    encoder         : Lavf62.3.100\n  Stream #0:0(und): Video: vp9, yuv420p(tv, progressive), 1920x1080, q=2-31, 8000 kb/s, 30 fps, 1k tbn (default)\n    Metadata:\n      encoder         : Lavc62.11.100 libvpx-vp9\n      handler_name    : VideoHandler\n      vendor_id       : [0][0][0][0]\n    Side data:\n      cpb: bitrate max/min/avg: 0/0/0 buffer size: 8000000 vbv_delay: N/A\nframe=    0 fps=0.0 q=0.0 size=       0KiB time=N/A bitrate=N/A speed=N/A elapsed=0:00:00.53    \nframe=    5 fps=4.4 q=36.0 size=       1KiB time=00:00:00.16 bitrate=  30.4kbits/s speed=0.146x elapsed=0:00:01.14    \nframe=    9 fps=5.4 q=31.0 size=       1KiB time=00:00:00.30 bitrate=  16.9kbits/s speed=0.18x elapsed=0:00:01.66    \nframe=   13 fps=5.9 q=29.0 size=       1KiB time=00:00:00.43 bitrate=  11.7kbits/s speed=0.198x elapsed=0:00:02.18    \nframe=   17 fps=6.3 q=29.0 size=       1KiB time=00:00:00.56 bitrate=   9.0kbits/s speed=0.21x elapsed=0:00:02.69    \nframe=   20 fps=6.2 q=29.0 size=       1KiB time=00:00:00.66 bitrate=   7.6kbits/s speed=0.207x elapsed=0:00:03.21    \nframe=   24 fps=6.4 q=28.0 size=       1KiB time=00:00:00.80 bitrate=   6.3kbits/s speed=0.214x elapsed=0:00:03.73    \nframe=   28 fps=6.6 q=29.0 size=       1KiB time=00:00:00.93 bitrate=   5.4kbits/s speed=0.22x elapsed=0:00:04.24    \nframe=   31 fps=6.5 q=10.0 size=       1KiB time=00:00:01.03 bitrate=   4.9kbits/s speed=0.217x elapsed=0:00:04.77    \nframe=   35 fps=6.6 q=28.0 size=       1KiB time=00:00:01.16 bitrate=   4.3kbits/s speed=0.221x elapsed=0:00:05.27    \nframe=   39 fps=6.7 q=29.0 size=       1KiB time=00:00:01.30 bitrate=   3.9kbits/s speed=0.224x elapsed=0:00:05.79    \nframe=   42 fps=6.6 q=26.0 size=       1KiB time=00:00:01.40 bitrate=   3.6kbits/s speed=0.222x elapsed=0:00:06.31    \nframe=   46 fps=6.7 q=26.0 size=       1KiB time=00:00:01.53 bitrate=   3.3kbits/s speed=0.225x elapsed=0:00:06.82    \nframe=   50 fps=6.8 q=26.0 size=       1KiB time=00:00:01.66 bitrate=   3.0kbits/s speed=0.226x elapsed=0:00:07.36    \nframe=   53 fps=6.7 q=26.0 size=       1KiB time=00:00:01.76 bitrate=   2.9kbits/s speed=0.224x elapsed=0:00:07.89    \nframe=   57 fps=6.8 q=25.0 size=       1KiB time=00:00:01.90 bitrate=   2.7kbits/s speed=0.226x elapsed=0:00:08.42    \nframe=   60 fps=6.7 q=25.0 size=       1KiB time=00:00:02.00 bitrate=   2.5kbits/s speed=0.224x elapsed=0:00:08.94    \nframe=   64 fps=6.7 q=25.0 size=       1KiB time=00:00:02.13 bitrate=   2.4kbits/s speed=0.225x elapsed=0:00:09.48    \nframe=   68 fps=6.8 q=25.0 size=       1KiB time=00:00:02.26 bitrate=   2.2kbits/s speed=0.226x elapsed=0:00:10.03    \nframe=   71 fps=6.7 q=11.0 size=       1KiB time=00:00:02.36 bitrate=   2.1kbits/s speed=0.224x elapsed=0:00:10.58    \nframe=   75 fps=6.7 q=25.0 size=       1KiB time=00:00:02.50 bitrate=   2.0kbits/s speed=0.224x elapsed=0:00:11.14    \nframe=   79 fps=6.8 q=26.0 size=       1KiB time=00:00:02.63 bitrate=   1.9kbits/s speed=0.226x elapsed=0:00:11.67    \nframe=   82 fps=6.7 q=28.0 size=       1KiB time=00:00:02.73 bitrate=   1.9kbits/s speed=0.224x elapsed=0:00:12.20    \nframe=   86 fps=6.8 q=27.0 size=       1KiB time=00:00:02.86 bitrate=   1.8kbits/s speed=0.225x elapsed=0:00:12.71    \nframe=   90 fps=6.8 q=27.0 size=       1KiB time=00:00:03.00 bitrate=   1.7kbits/s speed=0.227x elapsed=0:00:13.23    \nframe=   94 fps=6.8 q=26.0 size=       1KiB time=00:00:03.13 bitrate=   1.6kbits/s speed=0.227x elapsed=0:00:13.77    \nframe=   98 fps=6.8 q=27.0 size=       1KiB time=00:00:03.26 bitrate=   1.6kbits/s speed=0.228x elapsed=0:00:14.30    \nframe=  102 fps=6.9 q=28.0 size=       1KiB time=00:00:03.40 bitrate=   1.5kbits/s speed=0.229x elapsed=0:00:14.83    \nframe=  106 fps=6.9 q=28.0 size=       1KiB time=00:00:03.53 bitrate=   1.4kbits/s speed=0.23x elapsed=0:00:15.36    \nframe=  110 fps=6.9 q=29.0 size=       1KiB time=00:00:03.66 bitrate=   1.4kbits/s speed=0.231x elapsed=0:00:15.89    \nframe=  114 fps=6.9 q=27.0 size=       1KiB time=00:00:03.80 bitrate=   1.3kbits/s speed=0.231x elapsed=0:00:16.42    \nframe=  117 fps=6.9 q=27.0 size=       1KiB time=00:00:03.90 bitrate=   1.3kbits/s speed=0.23x elapsed=0:00:16.97    \nframe=  120 fps=6.9 q=27.0 size=       1KiB time=00:00:04.00 bitrate=   1.3kbits/s speed=0.228x elapsed=0:00:17.51    \nframe=  122 fps=6.7 q=28.0 size=       1KiB time=00:00:04.06 bitrate=   1.2kbits/s speed=0.224x elapsed=0:00:18.12    \nframe=  124 fps=6.6 q=26.0 size=       1KiB time=00:00:04.13 bitrate=   1.2kbits/s speed=0.221x elapsed=0:00:18.69    \nframe=  126 fps=6.5 q=27.0 size=       1KiB time=00:00:04.20 bitrate=   1.2kbits/s speed=0.218x elapsed=0:00:19.28    \nframe=  126 fps=6.4 q=27.0 size=       1KiB time=00:00:04.20 bitrate=   1.2kbits/s speed=0.212x elapsed=0:00:19.80    \nframe=  126 fps=6.2 q=27.0 size=       1KiB time=00:00:04.20 bitrate=   1.2kbits/s speed=0.206x elapsed=0:00:20.34    \nframe=  126 fps=6.0 q=27.0 size=       1KiB time=00:00:04.20 bitrate=   1.2kbits/s speed=0.201x elapsed=0:00:20.85    \nframe=  126 fps=5.9 q=27.0 size=       1KiB time=00:00:04.20 bitrate=   1.2kbits/s speed=0.196x elapsed=0:00:21.38    \nframe=  126 fps=5.7 q=27.0 size=       1KiB time=00:00:04.20 bitrate=   1.2kbits/s speed=0.192x elapsed=0:00:21.91    \nframe=  126 fps=5.6 q=27.0 size=       1KiB time=00:00:04.20 bitrate=   1.2kbits/s speed=0.187x elapsed=0:00:22.43    \nframe=  126 fps=5.5 q=27.0 size=       1KiB time=00:00:04.20 bitrate=   1.2kbits/s speed=0.183x elapsed=0:00:22.97    \nframe=  126 fps=5.3 q=27.0 size=       1KiB time=00:00:04.20 bitrate=   1.2kbits/s speed=0.178x elapsed=0:00:23.55    \nframe=  126 fps=5.2 q=27.0 size=       1KiB time=00:00:04.20 bitrate=   1.2kbits/s speed=0.174x elapsed=0:00:24.14    \n[out#0/webm @ 00000289442f0bc0] video:4207KiB audio:0KiB subtitle:0KiB other streams:0KiB global headers:0KiB muxing overhead: 0.043706%\nframe=  150 fps=6.1 q=23.0 Lsize=    4209KiB time=00:00:05.00 bitrate=6896.4kbits/s speed=0.204x elapsed=0:00:24.47    \n",
  "seconds": 24.741471767425537,
  "probe_out": {}
}